{
  "asset": {
    "generator": "BabylonJS",
    "version": "2.0"
  },
  "buffers": [
    {
      "byteLength": 255552,
      "uri": "wearable.bin"
    }
  ],
  "nodes": [
    {
      "name": "boop",
      "mesh": 0,
      "rotation": [
        0,
        1,
        0,
        0
      ]
    }
  ],
  "meshes": [
    {
      "primitives": [
        {
          "attributes": {
            "POSITION": 0,
            "NORMAL": 1,
            "COLOR_0": 2
          },
          "indices": 3,
          "material": 0
        }
      ]
    }
  ],
  "scenes": [
    {
      "nodes": [
        0
      ]
    }
  ],
  "scene": 0,
  "bufferViews": [
    {
      "buffer": 0,
      "byteLength": 69696,
      "name": "position - boop",
      "byteStride": 12
    },
    {
      "buffer": 0,
      "byteLength": 69696,
      "byteOffset": 69696,
      "name": "normal - boop",
      "byteStride": 12
    },
    {
      "buffer": 0,
      "byteLength": 92928,
      "byteOffset": 139392,
      "name": "color - boop",
      "byteStride": 16
    },
    {
      "buffer": 0,
      "byteLength": 23232,
      "byteOffset": 232320,
      "name": "Indices - boop"
    }
  ],
  "accessors": [
    {
      "name": "position - boop",
      "bufferView": 0,
      "componentType": 5126,
      "count": 5808,
      "type": "VEC3",
      "min": [
        -0.06,
        0,
        -0.16
      ],
      "max": [
        0.24,
        0.64,
        0.14
      ],
      "byteOffset": 0
    },
    {
      "name": "normal - boop",
      "bufferView": 1,
      "componentType": 5126,
      "count": 5808,
      "type": "VEC3",
      "byteOffset": 0
    },
    {
      "name": "color - boop",
      "bufferView": 2,
      "componentType": 5126,
      "count": 5808,
      "type": "VEC4",
      "byteOffset": 0
    },
    {
      "name": "indices - boop",
      "bufferView": 3,
      "componentType": 5125,
      "count": 5808,
      "type": "SCALAR",
      "byteOffset": 0
    }
  ],
  "materials": [
    {
      "name": "default material",
      "pbrMetallicRoughness": {
        "baseColorFactor": [
          0.5,
          0.5,
          0.5,
          1
        ],
        "metallicFactor": 0,
        "roughnessFactor": 0.3288090062081349
      }
    }
  ]
}