<svg viewBox="0 0 64 64" xmlns="http://www.w3.org/2000/svg" xml:space="preserve" style="fill-rule:evenodd;clip-rule:evenodd;stroke-linejoin:round;stroke-miterlimit:2"><g stroke-width="0"/><g stroke-linecap="round"/><path style="fill:none" d="M-896-192H384v800H-896z"/><g/><g/><g/><g/><g/><g/><g/><g/><g/><g/><g/><g/><g/><g/><g/><g/><g/><g/><g/><g/><g/><g/><g/><g/><g/><path d="M55.821 44.743a988 988 0 0 1-8.547 8.764L33.991 39.31l7.953-7.953zm-24.682-8.284 7.953-7.953s-4.039-3.082-3.667-5.007 1.212-4.647 7.062-7.062c5.849-2.414 11.306-2.632 11.306-2.632l.196-2.637s-13.444-2.031-20.546.492-15.135 12.021-15.135 12.021 1.401 4.593-.999 6.994-5.628-.367-5.628-.367L8 34.982l9.289 9.288 4.665-3.689s-2.208-3.307-.026-5.287c4.695-4.261 9.211 1.165 9.211 1.165" fill="currentColor"/>
<g/><g/><g/><g/><g/><g/><g/><g/><g/><g/><g/><g/><g/><g/><g/><g/><g/><g/><g/></svg>